<mxfile host="app.diagrams.net" agent="Mozilla/5.0 (Macintosh; Intel Mac OS X 10_15_7) AppleWebKit/537.36 (KHTML, like Gecko) Chrome/131.0.0.0 Safari/537.36" version="24.8.6">
  <diagram name="Page-1" id="2RetdDt0-jRg7d4DW7QT">
    <mxGraphModel dx="774" dy="760" grid="0" gridSize="10" guides="1" tooltips="1" connect="1" arrows="1" fold="1" page="1" pageScale="1" pageWidth="1169" pageHeight="827" math="0" shadow="0">
      <root>
        <mxCell id="0" />
        <mxCell id="1" parent="0" />
        <mxCell id="KQVVHf95YenUiW5bk8Kf-4" value="" style="endArrow=none;html=1;rounded=0;fillColor=#fad9d5;strokeColor=#ae4132;strokeWidth=4;" edge="1" parent="1">
          <mxGeometry width="50" height="50" relative="1" as="geometry">
            <mxPoint x="280" y="414" as="sourcePoint" />
            <mxPoint x="280" y="134" as="targetPoint" />
          </mxGeometry>
        </mxCell>
        <mxCell id="KQVVHf95YenUiW5bk8Kf-5" value="" style="endArrow=none;html=1;rounded=0;fillColor=#60a917;strokeColor=#2D7600;strokeWidth=4;" edge="1" parent="1">
          <mxGeometry width="50" height="50" relative="1" as="geometry">
            <mxPoint x="540" y="414" as="sourcePoint" />
            <mxPoint x="540" y="134" as="targetPoint" />
          </mxGeometry>
        </mxCell>
        <mxCell id="KQVVHf95YenUiW5bk8Kf-6" value="" style="endArrow=classic;html=1;rounded=0;fillColor=#fad9d5;strokeColor=#ae4132;strokeWidth=4;" edge="1" parent="1">
          <mxGeometry width="50" height="50" relative="1" as="geometry">
            <mxPoint x="280" y="150" as="sourcePoint" />
            <mxPoint x="530" y="210" as="targetPoint" />
          </mxGeometry>
        </mxCell>
        <mxCell id="KQVVHf95YenUiW5bk8Kf-7" value="" style="endArrow=classic;html=1;rounded=0;fillColor=#fad9d5;strokeColor=#ae4132;strokeWidth=4;" edge="1" parent="1">
          <mxGeometry width="50" height="50" relative="1" as="geometry">
            <mxPoint x="280" y="310" as="sourcePoint" />
            <mxPoint x="530" y="370" as="targetPoint" />
          </mxGeometry>
        </mxCell>
        <mxCell id="KQVVHf95YenUiW5bk8Kf-8" value="" style="endArrow=classic;html=1;rounded=0;fillColor=#60a917;strokeColor=#2D7600;strokeWidth=4;" edge="1" parent="1">
          <mxGeometry width="50" height="50" relative="1" as="geometry">
            <mxPoint x="540" y="250" as="sourcePoint" />
            <mxPoint x="290" y="270" as="targetPoint" />
          </mxGeometry>
        </mxCell>
        <mxCell id="KQVVHf95YenUiW5bk8Kf-17" value="Send SYN" style="text;html=1;align=center;verticalAlign=middle;whiteSpace=wrap;rounded=0;fontSize=17;" vertex="1" parent="1">
          <mxGeometry x="140" y="160" width="100" height="30" as="geometry" />
        </mxCell>
        <mxCell id="KQVVHf95YenUiW5bk8Kf-18" value="Receive SYN" style="text;html=1;align=center;verticalAlign=middle;whiteSpace=wrap;rounded=0;fontSize=17;" vertex="1" parent="1">
          <mxGeometry x="560" y="197.5" width="110" height="30" as="geometry" />
        </mxCell>
        <mxCell id="KQVVHf95YenUiW5bk8Kf-21" value="Receive SYN" style="text;html=1;align=center;verticalAlign=middle;whiteSpace=wrap;rounded=0;fontSize=17;" vertex="1" parent="1">
          <mxGeometry x="130" y="250" width="110" height="30" as="geometry" />
        </mxCell>
        <mxCell id="KQVVHf95YenUiW5bk8Kf-22" value="Send SYN" style="text;html=1;align=center;verticalAlign=middle;whiteSpace=wrap;rounded=0;fontSize=17;" vertex="1" parent="1">
          <mxGeometry x="560" y="250" width="100" height="30" as="geometry" />
        </mxCell>
        <mxCell id="KQVVHf95YenUiW5bk8Kf-23" value="Send ACK" style="text;html=1;align=center;verticalAlign=middle;whiteSpace=wrap;rounded=0;fontSize=17;" vertex="1" parent="1">
          <mxGeometry x="135" y="320" width="100" height="30" as="geometry" />
        </mxCell>
        <mxCell id="KQVVHf95YenUiW5bk8Kf-25" value="" style="image;html=1;image=img/lib/clip_art/computers/Server_Rack_128x128.png" vertex="1" parent="1">
          <mxGeometry x="560" y="20" width="90" height="110" as="geometry" />
        </mxCell>
        <mxCell id="KQVVHf95YenUiW5bk8Kf-26" value="Receive ACK" style="text;html=1;align=center;verticalAlign=middle;whiteSpace=wrap;rounded=0;fontSize=17;" vertex="1" parent="1">
          <mxGeometry x="560" y="350" width="110" height="30" as="geometry" />
        </mxCell>
        <mxCell id="KQVVHf95YenUiW5bk8Kf-28" value="" style="image;aspect=fixed;perimeter=ellipsePerimeter;html=1;align=center;shadow=0;dashed=0;spacingTop=3;image=img/lib/active_directory/laptop_client.svg;" vertex="1" parent="1">
          <mxGeometry x="181" y="45" width="54" height="60" as="geometry" />
        </mxCell>
        <mxCell id="KQVVHf95YenUiW5bk8Kf-29" value="&lt;strong style=&quot;font-size: 17px;&quot;&gt;Client → SYN → Server → SYN-ACK → Client → ACK → Connection Established&lt;/strong&gt;." style="text;html=1;align=center;verticalAlign=middle;whiteSpace=wrap;rounded=0;fontSize=17;" vertex="1" parent="1">
          <mxGeometry x="60" y="470" width="670" height="30" as="geometry" />
        </mxCell>
      </root>
    </mxGraphModel>
  </diagram>
</mxfile>
